<svg xmlns="http://www.w3.org/2000/svg" xmlns:xlink="http://www.w3.org/1999/xlink" viewBox="0 0 74.375 85" fill="#fff" fill-rule="evenodd" stroke="#000" stroke-linecap="round" stroke-linejoin="round"><use xlink:href="#A" x="2.188" y="2.5"/><symbol id="A" overflow="visible"><g stroke="none"><path d="M0 0v43.266l35 18.358V49.145L11.586 36.864v-19.29L35 29.855V18.358L0 0h0z" fill="#002a41"/><g fill="#0071b5"><path d="M70 0v43.266L35 61.623V49.145l23.415-12.281v-19.29L35 29.855V18.358L70 0h0z"/><path d="M0 80V36.735l35-18.358v12.479L11.586 43.137v18.308L35 49.164v12.479L0 80h0z"/></g><path d="M70 80V36.735L35 18.377v12.479l23.415 12.281v18.308L35 49.164v12.479L70 80h0z" fill="#002a41"/></g></symbol></svg>