<svg xmlns="http://www.w3.org/2000/svg" xmlns:xlink="http://www.w3.org/1999/xlink" viewBox="0 0 82 82" fill="#fff" fill-rule="evenodd" stroke="#000" stroke-linecap="round" stroke-linejoin="round"><use xlink:href="#A" x=".5" y=".5"/><symbol id="A" overflow="visible"><g stroke="none"><ellipse cx="39.947" cy="39.993" fill="#4c8cf5" rx="13.982" ry="14.003"/><path d="M37.678 80l2.27-3.938 15.188-26.346.751-1.302-.751 1.302c-3.183 5.023-8.784 8.343-15.188 8.343s-12.007-3.321-15.189-8.345c-.267-.421-.517-.854-.748-1.298L8.812 22.052l-2.289-3.971a39.88 39.88 0 0 0-2.286 3.971C1.525 27.458 0 33.572 0 40.055c0 6.714 1.635 13.032 4.53 18.577l1.665 2.889C12.889 72.086 24.398 79.262 37.678 80z" fill="#1ba261"/><path d="M6.469 18.062l2.271 3.935 15.192 26.326.751 1.301-.751-1.301a17.95 17.95 0 0 1 .384-17.334 17.95 17.95 0 0 1 14.822-8.999 17.89 17.89 0 0 1 1.498 0l30.416-.007 4.581-.001a39.81 39.81 0 0 0-2.291-3.966c-3.32-5.051-7.846-9.426-13.456-12.665C54.076 1.999 47.792.261 41.546 0l-3.333.001C25.723.527 13.754 6.919 6.469 18.062z" fill="#dd5044"/><path d="M75.687 21.978l-4.543-.001-30.396-.006h-1.502 1.502a17.95 17.95 0 0 1 14.82 8.999 17.95 17.95 0 0 1 .383 17.335 17.89 17.89 0 0 1-.749 1.297L40 75.946l-2.29 3.968a39.81 39.81 0 0 0 4.58-.001c6.034-.35 12.086-2.082 17.696-5.321 5.809-3.354 10.456-7.927 13.805-13.206l1.666-2.887c5.79-11.08 6.238-24.641.23-36.522z" fill="#ffce44"/><path d="M53.184 27.786l22.325-5.797h-4.424-31.136a17.91 17.91 0 0 1 13.236 5.797z" fill="#f4c134"/><path d="M22.778 34.616L6.589 18.158l2.214 3.835 15.584 26.992c-2.626-4.549-3.054-9.743-1.609-14.369z" fill="#cd483c"/><path d="M43.887 57.579l-6.159 22.249 2.214-3.835 15.584-26.992c-2.626 4.549-6.911 7.517-11.639 8.578z" fill="#259860"/></g></symbol></svg>