<svg xmlns="http://www.w3.org/2000/svg" xmlns:xlink="http://www.w3.org/1999/xlink" viewBox="0 0 212.5 85" fill="#fff" fill-rule="evenodd" stroke="#000" stroke-linecap="round" stroke-linejoin="round"><use xlink:href="#A" x="6.25" y="2.5"/><symbol id="A" overflow="visible"><g stroke="none" fill="#264970"><path d="M183.395 20.315c-.184-.603-.726-1.012-1.34-1.012h-13.11c-.613 0-1.155.409-1.339 1.012l-16.54 54.029c-.135.44-.058.919.206 1.291a1.39 1.39 0 0 0 1.133.591h9.025a1.41 1.41 0 0 0 1.347-1.037l11.39-39.736s.298-.993 1.329-.993c1.048 0 1.304 1.032 1.304 1.033l5.284 18.844h-7.26c-.629 0-1.182.431-1.352 1.055l-2.037 7.46a1.48 1.48 0 0 0 .233 1.265 1.39 1.39 0 0 0 1.12.573h12.252l3.183 10.52a1.41 1.41 0 0 0 1.342 1.017h9.029a1.39 1.39 0 0 0 1.133-.591c.265-.372.342-.852.207-1.291l-16.54-54.029"/><path d="M121.745 29.823h10.925c5.65 0 6.784 2.29 6.784 5.985v5.518c0 4.599-1.711 6.151-6.784 6.151h-10.925V29.823h0zm33.357 44.015l-12.005-17.835c5.169-2.209 7.789-6.837 7.789-13.758v-7.274c0-10.836-5.493-15.668-17.811-15.668h-21.357c-.776 0-1.405.648-1.405 1.446v54.029c0 .8.629 1.447 1.405 1.447h8.622c.776 0 1.405-.648 1.405-1.447V57.834h8.824l12.001 17.771c.263.389.693.621 1.153.621h10.304.009c.776 0 1.405-.648 1.405-1.447a1.46 1.46 0 0 0-.338-.941h0zM99.838 19.303h-8.622c-.776 0-1.405.648-1.405 1.446v54.029c0 .8.629 1.447 1.405 1.447h8.622c.776 0 1.405-.648 1.405-1.447V20.749c0-.799-.629-1.446-1.405-1.446m-20.193 0h-8.727c-.739 0-1.341.617-1.341 1.378v42.278c0 5.313-3.931 7.06-6.591 7.199-.359.018-.776.251-1.005.596a1.41 1.41 0 0 0-.175 1.181l2.122 7.109c.173.582.782.956 1.772.956 8.35 0 15.283-6.752 15.283-15.803V20.682a1.4 1.4 0 0 0-.392-.975c-.251-.259-.591-.403-.946-.403M12.064 4.564c-2.681 0-4.852 2.233-4.852 5.002 0 2.762 2.171 5.003 4.852 5.003s4.852-2.241 4.852-5.003c0-2.768-2.169-5.002-4.852-5.002"/><path d="M43.944 4.564c-2.683 0-4.851 2.233-4.851 5.002 0 2.762 2.168 5.003 4.851 5.003 2.675 0 4.851-2.241 4.851-5.003 0-2.768-2.176-4.998-4.851-5.002M28.004 0c-2.681 0-4.852 2.233-4.852 5.002 0 2.762 2.171 5.003 4.852 5.003s4.852-2.242 4.852-5.003C32.856 2.233 30.687 0 28.004 0m27.411 18.502c-.27-.211-.594-.321-.924-.321a1.47 1.47 0 0 0-.542.104c-3.286 1.294-6.622 2.276-9.667 3.007a1.92 1.92 0 0 0-1.331 1.195c-2.219 6.259-7.884 12.22-13.828 18.462-.239.233-.573.541-1.117.541s-.874-.298-1.117-.541c-5.943-6.243-11.609-12.182-13.828-18.442-.208-.57-.71-1.045-1.33-1.195-3.047-.731-6.392-1.744-9.673-3.038a1.49 1.49 0 0 0-.544-.103 1.47 1.47 0 0 0-.917.318c-.421.331-.64.867-.59 1.383.503 5.205 2.5 10.294 6.104 15.626 3.388 5.013 7.807 9.654 12.079 14.141 7.872 8.269 15.308 16.079 15.96 25.136.059.817.72 1.45 1.517 1.45h9.248a1.5 1.5 0 0 0 1.102-.487c.286-.31.438-.728.417-1.157-.291-6.055-2.503-12.119-6.764-18.535-.893-1.345-1.849-2.654-2.849-3.935-.406-.522-.236-1.17.075-1.497l.926-.974c4.273-4.488 8.691-9.128 12.079-14.141 3.604-5.333 5.6-10.391 6.103-15.596a1.63 1.63 0 0 0-.59-1.401M18.082 56.683a1.39 1.39 0 0 0-1.08-.476c-.69 0-1.1.492-1.255.735-3.89 6.097-5.899 11.851-6.177 17.633a1.61 1.61 0 0 0 .419 1.161 1.52 1.52 0 0 0 1.107.488h9.232c.794 0 1.463-.64 1.522-1.456.201-2.787 1.044-5.58 2.577-8.516.532-1.016.119-1.97-.187-2.377-1.522-2.038-3.386-4.212-6.158-7.192"/><path d="M28.014 23.168l5.17-.179c.715 0 1.399.604 1.399 1.449 0 .247-.056.423-.113.579-.384 1.058-2.136 4.866-5.398 8.133-.366.366-.78.435-1.066.435h-.004a1.46 1.46 0 0 1-1.065-.435c-3.262-3.266-5.014-7.074-5.397-8.132-.057-.156-.113-.332-.113-.579 0-.845.684-1.449 1.4-1.449l5.187.179"/></g></symbol></svg>